<svg xmlns="http://www.w3.org/2000/svg" xmlns:xlink="http://www.w3.org/1999/xlink" width="2000" zoomAndPan="magnify" viewBox="0 0 1500 1499.999933" height="2000" preserveAspectRatio="xMidYMid meet" version="1.0"><defs><g/></defs><g fill="#3219a4" fill-opacity="1"><g transform="translate(918.710114, 733.797397)"><g><path d="M 24.015625 0 L 5.640625 0 L 5.640625 -47.40625 L 23.90625 -47.40625 C 27.695312 -47.40625 31.140625 -46.84375 34.234375 -45.71875 C 37.328125 -44.59375 39.984375 -42.984375 42.203125 -40.890625 C 44.421875 -38.796875 46.125 -36.300781 47.3125 -33.40625 C 48.507812 -30.519531 49.109375 -27.296875 49.109375 -23.734375 C 49.109375 -20.179688 48.507812 -16.945312 47.3125 -14.03125 C 46.125 -11.113281 44.425781 -8.609375 42.21875 -6.515625 C 40.007812 -4.421875 37.363281 -2.8125 34.28125 -1.6875 C 31.207031 -0.5625 27.785156 0 24.015625 0 Z M 14.1875 -39.703125 L 14.1875 -7.734375 L 23.734375 -7.734375 C 27.203125 -7.734375 30.175781 -8.378906 32.65625 -9.671875 C 35.144531 -10.960938 37.050781 -12.789062 38.375 -15.15625 C 39.695312 -17.53125 40.359375 -20.34375 40.359375 -23.59375 C 40.359375 -26.820312 39.707031 -29.644531 38.40625 -32.0625 C 37.113281 -34.488281 35.222656 -36.367188 32.734375 -37.703125 C 30.242188 -39.035156 27.222656 -39.703125 23.671875 -39.703125 Z M 14.1875 -39.703125 "/></g></g></g><g fill="#3219a4" fill-opacity="1"><g transform="translate(980.147635, 733.797397)"><g><path d="M 38.453125 0 L 5.640625 0 L 5.640625 -47.40625 L 38.140625 -47.40625 L 38.140625 -39.640625 L 14.328125 -39.640625 L 14.328125 -27.75 L 34.890625 -27.75 L 34.890625 -20.421875 L 14.328125 -20.421875 L 14.328125 -7.78125 L 38.453125 -7.78125 Z M 38.453125 0 "/></g></g></g><g fill="#3219a4" fill-opacity="1"><g transform="translate(1030.85044, 733.797397)"><g><path d="M 21.640625 1.078125 C 18.222656 1.078125 15.296875 0.640625 12.859375 -0.234375 C 10.421875 -1.117188 8.425781 -2.300781 6.875 -3.78125 C 5.332031 -5.257812 4.195312 -6.90625 3.46875 -8.71875 C 2.738281 -10.53125 2.375 -12.363281 2.375 -14.21875 L 11.046875 -14.21875 C 11.046875 -12.757812 11.457031 -11.425781 12.28125 -10.21875 C 13.113281 -9.007812 14.316406 -8.039062 15.890625 -7.3125 C 17.472656 -6.59375 19.378906 -6.234375 21.609375 -6.234375 C 28.648438 -6.234375 32.171875 -8.59375 32.171875 -13.3125 C 32.171875 -14.78125 31.71875 -15.972656 30.8125 -16.890625 C 29.90625 -17.804688 28.640625 -18.546875 27.015625 -19.109375 C 25.390625 -19.679688 23.472656 -20.175781 21.265625 -20.59375 C 19.679688 -20.925781 18.054688 -21.320312 16.390625 -21.78125 C 14.734375 -22.25 13.144531 -22.832031 11.625 -23.53125 C 10.101562 -24.226562 8.738281 -25.085938 7.53125 -26.109375 C 6.320312 -27.128906 5.363281 -28.359375 4.65625 -29.796875 C 3.945312 -31.242188 3.59375 -32.953125 3.59375 -34.921875 C 3.59375 -37.503906 4.210938 -39.816406 5.453125 -41.859375 C 6.703125 -43.910156 8.640625 -45.53125 11.265625 -46.71875 C 13.890625 -47.914062 17.242188 -48.515625 21.328125 -48.515625 C 25.285156 -48.515625 28.582031 -47.921875 31.21875 -46.734375 C 33.851562 -45.554688 35.835938 -43.894531 37.171875 -41.75 C 38.515625 -39.613281 39.1875 -37.128906 39.1875 -34.296875 L 30.5 -34.296875 C 30.5 -35.535156 30.171875 -36.648438 29.515625 -37.640625 C 28.867188 -38.640625 27.863281 -39.4375 26.5 -40.03125 C 25.144531 -40.625 23.390625 -40.921875 21.234375 -40.921875 C 19.441406 -40.921875 17.960938 -40.75 16.796875 -40.40625 C 15.640625 -40.070312 14.726562 -39.613281 14.0625 -39.03125 C 13.40625 -38.457031 12.941406 -37.8125 12.671875 -37.09375 C 12.398438 -36.375 12.265625 -35.640625 12.265625 -34.890625 C 12.265625 -32.921875 13.253906 -31.410156 15.234375 -30.359375 C 17.210938 -29.316406 20.1875 -28.46875 24.15625 -27.8125 C 26.34375 -27.414062 28.441406 -26.875 30.453125 -26.1875 C 32.460938 -25.507812 34.253906 -24.617188 35.828125 -23.515625 C 37.410156 -22.410156 38.660156 -21.019531 39.578125 -19.34375 C 40.492188 -17.675781 40.953125 -15.65625 40.953125 -13.28125 C 40.953125 -10.21875 40.15625 -7.613281 38.5625 -5.46875 C 36.976562 -3.332031 34.738281 -1.707031 31.84375 -0.59375 C 28.945312 0.519531 25.546875 1.078125 21.640625 1.078125 Z M 21.640625 1.078125 "/></g></g></g><g fill="#3219a4" fill-opacity="1"><g transform="translate(1083.992952, 733.797397)"><g><path d="M 14.328125 0 L 5.640625 0 L 5.640625 -47.40625 L 14.328125 -47.40625 Z M 14.328125 0 "/></g></g></g><g fill="#3219a4" fill-opacity="1"><g transform="translate(1113.92337, 733.797397)"><g><path d="M 27.328125 1.015625 C 24.566406 1.015625 21.9375 0.597656 19.4375 -0.234375 C 16.9375 -1.078125 14.644531 -2.253906 12.5625 -3.765625 C 10.488281 -5.273438 8.679688 -7.054688 7.140625 -9.109375 C 5.609375 -11.171875 4.421875 -13.4375 3.578125 -15.90625 C 2.742188 -18.382812 2.328125 -20.992188 2.328125 -23.734375 C 2.328125 -26.503906 2.742188 -29.128906 3.578125 -31.609375 C 4.421875 -34.097656 5.613281 -36.367188 7.15625 -38.421875 C 8.707031 -40.484375 10.523438 -42.269531 12.609375 -43.78125 C 14.703125 -45.289062 17.003906 -46.457031 19.515625 -47.28125 C 22.023438 -48.101562 24.675781 -48.515625 27.46875 -48.515625 C 29.46875 -48.515625 31.476562 -48.273438 33.5 -47.796875 C 35.519531 -47.328125 37.453125 -46.628906 39.296875 -45.703125 C 41.148438 -44.773438 42.84375 -43.628906 44.375 -42.265625 C 45.90625 -40.910156 47.210938 -39.351562 48.296875 -37.59375 C 49.378906 -35.84375 50.140625 -33.894531 50.578125 -31.75 L 41.765625 -31.75 C 40.523438 -34.519531 38.640625 -36.679688 36.109375 -38.234375 C 33.578125 -39.796875 30.628906 -40.578125 27.265625 -40.578125 C 25.023438 -40.578125 22.914062 -40.175781 20.9375 -39.375 C 18.96875 -38.570312 17.238281 -37.425781 15.75 -35.9375 C 14.269531 -34.445312 13.101562 -32.671875 12.25 -30.609375 C 11.40625 -28.554688 10.984375 -26.265625 10.984375 -23.734375 C 10.984375 -21.160156 11.40625 -18.84375 12.25 -16.78125 C 13.101562 -14.726562 14.269531 -12.96875 15.75 -11.5 C 17.238281 -10.039062 18.96875 -8.921875 20.9375 -8.140625 C 22.914062 -7.359375 25.023438 -6.96875 27.265625 -6.96875 C 30.097656 -6.96875 32.546875 -7.445312 34.609375 -8.40625 C 36.679688 -9.375 38.363281 -10.707031 39.65625 -12.40625 C 40.945312 -14.101562 41.8125 -16.054688 42.25 -18.265625 L 26.90625 -18.265625 L 26.90625 -25.515625 L 51.65625 -25.515625 C 51.6875 -21.628906 51.164062 -18.066406 50.09375 -14.828125 C 49.019531 -11.585938 47.4375 -8.78125 45.34375 -6.40625 C 43.257812 -4.039062 40.707031 -2.210938 37.6875 -0.921875 C 34.664062 0.367188 31.210938 1.015625 27.328125 1.015625 Z M 27.328125 1.015625 "/></g></g></g><g fill="#3219a4" fill-opacity="1"><g transform="translate(1177.905176, 733.797397)"><g><path d="M 14.328125 0 L 5.640625 0 L 5.640625 -47.40625 L 13.109375 -47.40625 L 38.9375 -14.21875 L 38.9375 -47.40625 L 47.578125 -47.40625 L 47.578125 0 L 40.15625 0 L 14.328125 -33.15625 Z M 14.328125 0 "/></g></g></g><g fill="#3219a4" fill-opacity="1"><g transform="translate(1241.120205, 733.797397)"><g><path d="M 9.375 0.875 C 8.394531 0.875 7.539062 0.660156 6.8125 0.234375 C 6.082031 -0.179688 5.507812 -0.742188 5.09375 -1.453125 C 4.675781 -2.160156 4.46875 -2.929688 4.46875 -3.765625 C 4.46875 -4.597656 4.671875 -5.367188 5.078125 -6.078125 C 5.484375 -6.785156 6.054688 -7.347656 6.796875 -7.765625 C 7.535156 -8.191406 8.40625 -8.40625 9.40625 -8.40625 C 10.40625 -8.40625 11.269531 -8.191406 12 -7.765625 C 12.738281 -7.347656 13.316406 -6.785156 13.734375 -6.078125 C 14.148438 -5.367188 14.359375 -4.597656 14.359375 -3.765625 C 14.359375 -2.484375 13.90625 -1.390625 13 -0.484375 C 12.09375 0.421875 10.882812 0.875 9.375 0.875 Z M 9.375 0.875 "/></g></g></g><g fill="#3219a4" fill-opacity="1"><g transform="translate(338.136904, 736.577317)"><g><path d="M 2.453125 -165.9375 C 2.453125 -168.882812 3.164062 -171.113281 4.59375 -172.625 C 6.03125 -174.144531 7.789062 -175.210938 9.875 -175.828125 C 11.96875 -176.441406 14.035156 -176.769531 16.078125 -176.8125 C 18.128906 -176.851562 19.8125 -176.875 21.125 -176.875 L 52.8125 -176.875 C 54.125 -176.875 55.800781 -176.851562 57.84375 -176.8125 C 59.894531 -176.769531 61.960938 -176.441406 64.046875 -175.828125 C 66.140625 -175.210938 67.898438 -174.144531 69.328125 -172.625 C 70.765625 -171.113281 71.484375 -168.882812 71.484375 -165.9375 C 71.484375 -162.75 71.21875 -159.84375 70.6875 -157.21875 C 70.15625 -154.601562 69.457031 -151.960938 68.59375 -149.296875 C 67.738281 -146.640625 66.835938 -143.671875 65.890625 -140.390625 C 64.953125 -137.117188 64.050781 -133.269531 63.1875 -128.84375 C 62.332031 -124.425781 61.640625 -119.125 61.109375 -112.9375 C 60.578125 -106.757812 60.3125 -99.410156 60.3125 -90.890625 L 60.3125 -51.21875 C 60.3125 -47.945312 60.429688 -45.019531 60.671875 -42.4375 C 60.921875 -39.851562 61.554688 -37.84375 62.578125 -36.40625 C 63.597656 -34.976562 65.257812 -34.265625 67.5625 -34.265625 C 73.53125 -34.265625 78.828125 -35.1875 83.453125 -37.03125 C 88.085938 -38.875 92.265625 -41.144531 95.984375 -43.84375 C 99.710938 -46.550781 103.113281 -49.234375 106.1875 -51.890625 C 109.257812 -54.554688 112.207031 -56.804688 115.03125 -58.640625 C 117.851562 -60.484375 120.738281 -61.40625 123.6875 -61.40625 C 126.632812 -61.40625 128.722656 -60.648438 129.953125 -59.140625 C 131.179688 -57.628906 131.894531 -55.785156 132.09375 -53.609375 C 132.300781 -51.441406 132.40625 -49.332031 132.40625 -47.28125 L 132.40625 -12.15625 C 132.40625 -8.550781 131.28125 -5.625 129.03125 -3.375 C 126.78125 -1.125 123.851562 0 120.25 0 L 19.15625 0 C 17.851562 0 16.28125 -0.0195312 14.4375 -0.0625 C 12.59375 -0.101562 10.75 -0.429688 8.90625 -1.046875 C 7.0625 -1.660156 5.523438 -2.722656 4.296875 -4.234375 C 3.066406 -5.753906 2.453125 -7.988281 2.453125 -10.9375 C 2.453125 -15.113281 2.820312 -18.941406 3.5625 -22.421875 C 4.300781 -25.898438 5.222656 -29.539062 6.328125 -33.34375 C 7.429688 -37.15625 8.554688 -41.578125 9.703125 -46.609375 C 10.847656 -51.648438 11.789062 -57.734375 12.53125 -64.859375 C 13.269531 -71.984375 13.640625 -80.660156 13.640625 -90.890625 C 13.640625 -99.410156 13.367188 -106.757812 12.828125 -112.9375 C 12.296875 -119.125 11.597656 -124.425781 10.734375 -128.84375 C 9.878906 -133.269531 8.976562 -137.117188 8.03125 -140.390625 C 7.09375 -143.671875 6.191406 -146.640625 5.328125 -149.296875 C 4.472656 -151.960938 3.78125 -154.601562 3.25 -157.21875 C 2.71875 -159.84375 2.453125 -162.75 2.453125 -165.9375 Z M 2.453125 -165.9375 "/></g></g></g><g fill="#3219a4" fill-opacity="1"><g transform="translate(476.928494, 736.577317)"><g><path d="M 13.640625 -88.4375 C 13.640625 -97.195312 13.367188 -104.75 12.828125 -111.09375 C 12.296875 -117.4375 11.597656 -122.898438 10.734375 -127.484375 C 9.878906 -132.078125 8.976562 -136.050781 8.03125 -139.40625 C 7.09375 -142.769531 6.191406 -145.800781 5.328125 -148.5 C 4.472656 -151.195312 3.78125 -153.914062 3.25 -156.65625 C 2.71875 -159.40625 2.453125 -162.414062 2.453125 -165.6875 C 2.453125 -168.71875 3.164062 -171.007812 4.59375 -172.5625 C 6.03125 -174.125 7.789062 -175.210938 9.875 -175.828125 C 11.96875 -176.441406 14.035156 -176.769531 16.078125 -176.8125 C 18.128906 -176.851562 19.8125 -176.875 21.125 -176.875 L 52.8125 -176.875 C 54.125 -176.875 55.800781 -176.851562 57.84375 -176.8125 C 59.894531 -176.769531 61.960938 -176.441406 64.046875 -175.828125 C 66.140625 -175.210938 67.898438 -174.125 69.328125 -172.5625 C 70.765625 -171.007812 71.484375 -168.71875 71.484375 -165.6875 C 71.484375 -162.414062 71.21875 -159.40625 70.6875 -156.65625 C 70.15625 -153.914062 69.457031 -151.195312 68.59375 -148.5 C 67.738281 -145.800781 66.835938 -142.769531 65.890625 -139.40625 C 64.953125 -136.050781 64.050781 -132.078125 63.1875 -127.484375 C 62.332031 -122.898438 61.640625 -117.4375 61.109375 -111.09375 C 60.578125 -104.75 60.3125 -97.195312 60.3125 -88.4375 C 60.3125 -79.675781 60.578125 -72.117188 61.109375 -65.765625 C 61.640625 -59.421875 62.332031 -53.957031 63.1875 -49.375 C 64.050781 -44.789062 64.953125 -40.816406 65.890625 -37.453125 C 66.835938 -34.097656 67.738281 -31.066406 68.59375 -28.359375 C 69.457031 -25.660156 70.15625 -22.960938 70.6875 -20.265625 C 71.21875 -17.566406 71.484375 -14.535156 71.484375 -11.171875 C 71.484375 -8.140625 70.765625 -5.847656 69.328125 -4.296875 C 67.898438 -2.742188 66.140625 -1.660156 64.046875 -1.046875 C 61.960938 -0.429688 59.894531 -0.101562 57.84375 -0.0625 C 55.800781 -0.0195312 54.125 0 52.8125 0 L 21.125 0 C 19.8125 0 18.128906 -0.0195312 16.078125 -0.0625 C 14.035156 -0.101562 11.96875 -0.429688 9.875 -1.046875 C 7.789062 -1.660156 6.03125 -2.742188 4.59375 -4.296875 C 3.164062 -5.847656 2.453125 -8.140625 2.453125 -11.171875 C 2.453125 -14.535156 2.71875 -17.566406 3.25 -20.265625 C 3.78125 -22.960938 4.472656 -25.660156 5.328125 -28.359375 C 6.191406 -31.066406 7.09375 -34.097656 8.03125 -37.453125 C 8.976562 -40.816406 9.878906 -44.789062 10.734375 -49.375 C 11.597656 -53.957031 12.296875 -59.421875 12.828125 -65.765625 C 13.367188 -72.117188 13.640625 -79.675781 13.640625 -88.4375 Z M 13.640625 -88.4375 "/></g></g></g><g fill="#3219a4" fill-opacity="1"><g transform="translate(553.571001, 736.577317)"><g><path d="M 17.8125 0 C 15.101562 0 12.582031 -0.203125 10.25 -0.609375 C 7.914062 -1.023438 6.03125 -1.84375 4.59375 -3.0625 C 3.164062 -4.289062 2.453125 -6.054688 2.453125 -8.359375 C 2.453125 -10.648438 2.78125 -12.59375 3.4375 -14.1875 C 4.09375 -15.78125 4.992188 -17.351562 6.140625 -18.90625 C 7.285156 -20.46875 8.570312 -22.226562 10 -24.1875 C 11.4375 -26.15625 12.890625 -28.613281 14.359375 -31.5625 C 15.835938 -34.507812 17.273438 -38.238281 18.671875 -42.75 C 20.796875 -49.625 22.59375 -55.554688 24.0625 -60.546875 C 25.539062 -65.546875 26.832031 -69.945312 27.9375 -73.75 C 29.039062 -77.5625 30.039062 -81.082031 30.9375 -84.3125 C 31.84375 -87.550781 32.726562 -90.785156 33.59375 -94.015625 C 34.457031 -97.253906 35.421875 -100.796875 36.484375 -104.640625 C 37.546875 -108.492188 38.75 -112.957031 40.09375 -118.03125 C 41.445312 -123.113281 43.109375 -129.09375 45.078125 -135.96875 C 46.390625 -140.71875 47.3125 -144.441406 47.84375 -147.140625 C 48.375 -149.847656 48.679688 -152.082031 48.765625 -153.84375 C 48.847656 -155.601562 48.804688 -157.382812 48.640625 -159.1875 C 48.472656 -160.988281 48.3125 -163.320312 48.15625 -166.1875 C 48.15625 -166.84375 48.191406 -167.742188 48.265625 -168.890625 C 48.347656 -170.035156 48.675781 -171.222656 49.25 -172.453125 C 49.820312 -173.679688 50.804688 -174.722656 52.203125 -175.578125 C 53.597656 -176.441406 55.5625 -176.875 58.09375 -176.875 L 91.265625 -176.875 C 93.722656 -176.875 95.867188 -176.832031 97.703125 -176.75 C 99.546875 -176.664062 101.203125 -176.210938 102.671875 -175.390625 C 104.148438 -174.578125 105.566406 -173.101562 106.921875 -170.96875 C 108.273438 -168.84375 109.664062 -165.773438 111.09375 -161.765625 C 112.53125 -157.753906 114.148438 -152.472656 115.953125 -145.921875 C 118.242188 -137.890625 120.207031 -130.820312 121.84375 -124.71875 C 123.476562 -118.625 124.953125 -113.140625 126.265625 -108.265625 C 127.578125 -103.398438 128.847656 -98.691406 130.078125 -94.140625 C 131.304688 -89.597656 132.613281 -84.890625 134 -80.015625 C 135.394531 -75.148438 136.972656 -69.726562 138.734375 -63.75 C 140.492188 -57.769531 142.601562 -50.769531 145.0625 -42.75 C 146.445312 -38.238281 147.875 -34.507812 149.34375 -31.5625 C 150.820312 -28.613281 152.28125 -26.15625 153.71875 -24.1875 C 155.15625 -22.226562 156.445312 -20.46875 157.59375 -18.90625 C 158.738281 -17.351562 159.632812 -15.78125 160.28125 -14.1875 C 160.9375 -12.59375 161.265625 -10.648438 161.265625 -8.359375 C 161.265625 -6.054688 160.546875 -4.289062 159.109375 -3.0625 C 157.679688 -1.84375 155.820312 -1.023438 153.53125 -0.609375 C 151.238281 -0.203125 148.703125 0 145.921875 0 L 100.71875 0 C 98.832031 0 96.96875 -0.265625 95.125 -0.796875 C 93.28125 -1.328125 91.765625 -2.1875 90.578125 -3.375 C 89.390625 -4.5625 88.796875 -6.179688 88.796875 -8.234375 C 88.796875 -10.929688 89.019531 -13.078125 89.46875 -14.671875 C 89.925781 -16.273438 90.441406 -17.789062 91.015625 -19.21875 C 91.585938 -20.65625 92.097656 -22.414062 92.546875 -24.5 C 92.992188 -26.59375 93.21875 -29.476562 93.21875 -33.15625 C 93.21875 -35.207031 93.097656 -37.378906 92.859375 -39.671875 L 61.40625 -39.671875 C 61.488281 -38.609375 61.613281 -37.546875 61.78125 -36.484375 C 61.945312 -35.421875 62.070312 -34.3125 62.15625 -33.15625 C 62.644531 -29.476562 63.234375 -26.59375 63.921875 -24.5 C 64.617188 -22.414062 65.273438 -20.65625 65.890625 -19.21875 C 66.503906 -17.789062 67.035156 -16.273438 67.484375 -14.671875 C 67.941406 -13.078125 68.171875 -10.929688 68.171875 -8.234375 C 68.171875 -6.179688 67.578125 -4.5625 66.390625 -3.375 C 65.203125 -2.1875 63.6875 -1.328125 61.84375 -0.796875 C 60 -0.265625 58.132812 0 56.25 0 Z M 61.65625 -81.6875 L 83.515625 -81.6875 C 82.453125 -85.445312 81.347656 -89.4375 80.203125 -93.65625 C 79.054688 -97.875 77.789062 -102.359375 76.40625 -107.109375 C 75.582031 -109.890625 74.757812 -112.222656 73.9375 -114.109375 C 73.125 -115.992188 72.265625 -116.851562 71.359375 -116.6875 C 70.546875 -116.601562 69.726562 -115.472656 68.90625 -113.296875 C 68.082031 -111.128906 67.257812 -108.46875 66.4375 -105.3125 C 65.625 -102.164062 64.867188 -98.929688 64.171875 -95.609375 C 63.484375 -92.296875 62.929688 -89.367188 62.515625 -86.828125 C 62.109375 -84.296875 61.820312 -82.582031 61.65625 -81.6875 Z M 61.65625 -81.6875 "/></g></g></g><g fill="#3219a4" fill-opacity="1"><g transform="translate(719.998064, 736.577317)"><g><path d="M 2.453125 -11.171875 C 2.453125 -14.535156 2.71875 -17.566406 3.25 -20.265625 C 3.78125 -22.960938 4.472656 -25.660156 5.328125 -28.359375 C 6.191406 -31.066406 7.09375 -34.097656 8.03125 -37.453125 C 8.976562 -40.816406 9.878906 -44.789062 10.734375 -49.375 C 11.597656 -53.957031 12.296875 -59.421875 12.828125 -65.765625 C 13.367188 -72.117188 13.640625 -79.675781 13.640625 -88.4375 C 13.640625 -97.195312 13.367188 -104.75 12.828125 -111.09375 C 12.296875 -117.4375 11.597656 -122.898438 10.734375 -127.484375 C 9.878906 -132.078125 8.976562 -136.050781 8.03125 -139.40625 C 7.09375 -142.769531 6.191406 -145.800781 5.328125 -148.5 C 4.472656 -151.195312 3.78125 -153.914062 3.25 -156.65625 C 2.71875 -159.40625 2.453125 -162.414062 2.453125 -165.6875 C 2.453125 -168.71875 3.164062 -171.007812 4.59375 -172.5625 C 6.03125 -174.125 7.789062 -175.210938 9.875 -175.828125 C 11.96875 -176.441406 14.035156 -176.769531 16.078125 -176.8125 C 18.128906 -176.851562 19.8125 -176.875 21.125 -176.875 L 45.453125 -176.875 C 47.085938 -176.875 48.84375 -176.707031 50.71875 -176.375 C 52.601562 -176.050781 54.34375 -175.4375 55.9375 -174.53125 C 57.539062 -173.632812 58.753906 -172.242188 59.578125 -170.359375 L 59.578125 -170.484375 L 84.015625 -117.0625 C 85.160156 -114.6875 86.390625 -113.5 87.703125 -113.5 C 89.085938 -113.5 90.316406 -114.644531 91.390625 -116.9375 C 93.835938 -122.09375 96.289062 -127.617188 98.75 -133.515625 C 101.207031 -139.410156 103.765625 -145.40625 106.421875 -151.5 C 109.085938 -157.601562 111.9375 -163.519531 114.96875 -169.25 C 115.625 -171.46875 116.769531 -173.109375 118.40625 -174.171875 C 120.039062 -175.234375 121.859375 -175.945312 123.859375 -176.3125 C 125.867188 -176.6875 127.734375 -176.875 129.453125 -176.875 L 164.828125 -176.875 C 166.140625 -176.875 167.816406 -176.851562 169.859375 -176.8125 C 171.910156 -176.769531 173.976562 -176.441406 176.0625 -175.828125 C 178.15625 -175.210938 179.914062 -174.125 181.34375 -172.5625 C 182.78125 -171.007812 183.5 -168.71875 183.5 -165.6875 C 183.5 -162.414062 183.234375 -159.40625 182.703125 -156.65625 C 182.171875 -153.914062 181.472656 -151.195312 180.609375 -148.5 C 179.753906 -145.800781 178.851562 -142.769531 177.90625 -139.40625 C 176.96875 -136.050781 176.066406 -132.078125 175.203125 -127.484375 C 174.347656 -122.898438 173.65625 -117.4375 173.125 -111.09375 C 172.59375 -104.75 172.328125 -97.195312 172.328125 -88.4375 C 172.328125 -79.675781 172.59375 -72.117188 173.125 -65.765625 C 173.65625 -59.421875 174.347656 -53.957031 175.203125 -49.375 C 176.066406 -44.789062 176.96875 -40.816406 177.90625 -37.453125 C 178.851562 -34.097656 179.753906 -31.066406 180.609375 -28.359375 C 181.472656 -25.660156 182.171875 -22.960938 182.703125 -20.265625 C 183.234375 -17.566406 183.5 -14.535156 183.5 -11.171875 C 183.5 -8.140625 182.78125 -5.847656 181.34375 -4.296875 C 179.914062 -2.742188 178.15625 -1.660156 176.0625 -1.046875 C 173.976562 -0.429688 171.910156 -0.101562 169.859375 -0.0625 C 167.816406 -0.0195312 166.140625 0 164.828125 0 L 133.140625 0 C 131.097656 0 128.988281 -0.078125 126.8125 -0.234375 C 124.644531 -0.398438 122.617188 -0.8125 120.734375 -1.46875 C 118.859375 -2.125 117.34375 -3.226562 116.1875 -4.78125 C 115.039062 -6.34375 114.46875 -8.472656 114.46875 -11.171875 C 114.46875 -14.535156 114.671875 -17.566406 115.078125 -20.265625 C 115.492188 -22.960938 116.03125 -25.660156 116.6875 -28.359375 C 117.34375 -31.066406 118.015625 -34.097656 118.703125 -37.453125 C 119.398438 -40.816406 120.078125 -44.789062 120.734375 -49.375 C 121.390625 -53.957031 121.921875 -59.421875 122.328125 -65.765625 C 122.742188 -72.117188 122.953125 -79.675781 122.953125 -88.4375 L 90.03125 -30.21875 C 89.539062 -28.988281 88.742188 -28.046875 87.640625 -27.390625 C 86.535156 -26.734375 85.410156 -26.40625 84.265625 -26.40625 C 81.804688 -26.40625 79.960938 -27.632812 78.734375 -30.09375 L 49.25 -85.984375 C 49.332031 -77.628906 49.640625 -70.398438 50.171875 -64.296875 C 50.703125 -58.203125 51.394531 -52.941406 52.25 -48.515625 C 53.113281 -44.097656 54.015625 -40.25 54.953125 -36.96875 C 55.898438 -33.695312 56.78125 -30.726562 57.59375 -28.0625 C 58.414062 -25.40625 59.09375 -22.742188 59.625 -20.078125 C 60.164062 -17.421875 60.4375 -14.453125 60.4375 -11.171875 C 60.4375 -8.472656 59.863281 -6.34375 58.71875 -4.78125 C 57.570312 -3.226562 56.054688 -2.125 54.171875 -1.46875 C 52.285156 -0.8125 50.253906 -0.398438 48.078125 -0.234375 C 45.910156 -0.078125 43.804688 0 41.765625 0 L 21.125 0 C 19.8125 0 18.128906 -0.0195312 16.078125 -0.0625 C 14.035156 -0.101562 11.96875 -0.429688 9.875 -1.046875 C 7.789062 -1.660156 6.03125 -2.742188 4.59375 -4.296875 C 3.164062 -5.847656 2.453125 -8.140625 2.453125 -11.171875 Z M 2.453125 -11.171875 "/></g></g></g><g fill="#3219a4" fill-opacity="1"><g transform="translate(479.697239, 923.723228)"><g><path d="M 13.703125 -88.890625 C 13.703125 -97.703125 13.429688 -105.296875 12.890625 -111.671875 C 12.359375 -118.054688 11.660156 -123.550781 10.796875 -128.15625 C 9.929688 -132.769531 9.023438 -136.765625 8.078125 -140.140625 C 7.140625 -143.515625 6.238281 -146.554688 5.375 -149.265625 C 4.507812 -151.984375 3.804688 -154.722656 3.265625 -157.484375 C 2.734375 -160.242188 2.46875 -163.269531 2.46875 -166.5625 C 2.46875 -169.601562 3.1875 -171.90625 4.625 -173.46875 C 6.070312 -175.03125 7.84375 -176.117188 9.9375 -176.734375 C 12.039062 -177.359375 14.117188 -177.691406 16.171875 -177.734375 C 18.234375 -177.773438 19.921875 -177.796875 21.234375 -177.796875 L 53.09375 -177.796875 C 54.40625 -177.796875 56.085938 -177.773438 58.140625 -177.734375 C 60.203125 -177.691406 62.28125 -177.359375 64.375 -176.734375 C 66.476562 -176.117188 68.25 -175.03125 69.6875 -173.46875 C 71.132812 -171.90625 71.859375 -169.601562 71.859375 -166.5625 C 71.859375 -163.101562 71.566406 -159.992188 70.984375 -157.234375 C 70.410156 -154.472656 69.671875 -151.648438 68.765625 -148.765625 C 67.859375 -145.890625 66.910156 -142.660156 65.921875 -139.078125 C 64.941406 -135.503906 64.039062 -131.269531 63.21875 -126.375 C 62.394531 -121.476562 61.734375 -115.53125 61.234375 -108.53125 L 95.8125 -108.53125 C 95.320312 -115.53125 94.660156 -121.476562 93.828125 -126.375 C 93.003906 -131.269531 92.097656 -135.503906 91.109375 -139.078125 C 90.128906 -142.660156 89.1875 -145.890625 88.28125 -148.765625 C 87.375 -151.648438 86.628906 -154.472656 86.046875 -157.234375 C 85.472656 -159.992188 85.1875 -163.101562 85.1875 -166.5625 C 85.1875 -169.601562 85.90625 -171.90625 87.34375 -173.46875 C 88.789062 -175.03125 90.5625 -176.117188 92.65625 -176.734375 C 94.757812 -177.359375 96.835938 -177.691406 98.890625 -177.734375 C 100.953125 -177.773438 102.640625 -177.796875 103.953125 -177.796875 L 135.8125 -177.796875 C 137.132812 -177.796875 138.820312 -177.773438 140.875 -177.734375 C 142.9375 -177.691406 145.015625 -177.359375 147.109375 -176.734375 C 149.210938 -176.117188 150.984375 -175.03125 152.421875 -173.46875 C 153.859375 -171.90625 154.578125 -169.601562 154.578125 -166.5625 C 154.578125 -163.269531 154.3125 -160.242188 153.78125 -157.484375 C 153.25 -154.722656 152.550781 -151.984375 151.6875 -149.265625 C 150.820312 -146.554688 149.914062 -143.515625 148.96875 -140.140625 C 148.019531 -136.765625 147.113281 -132.769531 146.25 -128.15625 C 145.382812 -123.550781 144.679688 -118.054688 144.140625 -111.671875 C 143.609375 -105.296875 143.34375 -97.703125 143.34375 -88.890625 C 143.34375 -80.085938 143.609375 -72.492188 144.140625 -66.109375 C 144.679688 -59.734375 145.382812 -54.238281 146.25 -49.625 C 147.113281 -45.019531 148.019531 -41.03125 148.96875 -37.65625 C 149.914062 -34.28125 150.820312 -31.234375 151.6875 -28.515625 C 152.550781 -25.804688 153.25 -23.09375 153.78125 -20.375 C 154.3125 -17.65625 154.578125 -14.609375 154.578125 -11.234375 C 154.578125 -8.191406 153.859375 -5.882812 152.421875 -4.3125 C 150.984375 -2.75 149.210938 -1.660156 147.109375 -1.046875 C 145.015625 -0.429688 142.9375 -0.101562 140.875 -0.0625 C 138.820312 -0.0195312 137.132812 0 135.8125 0 L 103.953125 0 C 102.640625 0 100.953125 -0.0195312 98.890625 -0.0625 C 96.835938 -0.101562 94.757812 -0.429688 92.65625 -1.046875 C 90.5625 -1.660156 88.789062 -2.75 87.34375 -4.3125 C 85.90625 -5.882812 85.1875 -8.191406 85.1875 -11.234375 C 85.1875 -14.609375 85.453125 -17.65625 85.984375 -20.375 C 86.523438 -23.09375 87.226562 -25.804688 88.09375 -28.515625 C 88.957031 -31.234375 89.863281 -34.300781 90.8125 -37.71875 C 91.757812 -41.132812 92.664062 -45.125 93.53125 -49.6875 C 94.394531 -54.257812 95.070312 -59.796875 95.5625 -66.296875 L 61.484375 -66.296875 C 61.984375 -59.796875 62.664062 -54.257812 63.53125 -49.6875 C 64.394531 -45.125 65.296875 -41.132812 66.234375 -37.71875 C 67.179688 -34.300781 68.085938 -31.234375 68.953125 -28.515625 C 69.816406 -25.804688 70.515625 -23.09375 71.046875 -20.375 C 71.585938 -17.65625 71.859375 -14.609375 71.859375 -11.234375 C 71.859375 -8.191406 71.132812 -5.882812 69.6875 -4.3125 C 68.25 -2.75 66.476562 -1.660156 64.375 -1.046875 C 62.28125 -0.429688 60.203125 -0.101562 58.140625 -0.0625 C 56.085938 -0.0195312 54.40625 0 53.09375 0 L 21.234375 0 C 19.921875 0 18.234375 -0.0195312 16.171875 -0.0625 C 14.117188 -0.101562 12.039062 -0.429688 9.9375 -1.046875 C 7.84375 -1.660156 6.070312 -2.75 4.625 -4.3125 C 3.1875 -5.882812 2.46875 -8.191406 2.46875 -11.234375 C 2.46875 -14.609375 2.734375 -17.65625 3.265625 -20.375 C 3.804688 -23.09375 4.507812 -25.804688 5.375 -28.515625 C 6.238281 -31.234375 7.140625 -34.28125 8.078125 -37.65625 C 9.023438 -41.03125 9.929688 -45.019531 10.796875 -49.625 C 11.660156 -54.238281 12.359375 -59.734375 12.890625 -66.109375 C 13.429688 -72.492188 13.703125 -80.085938 13.703125 -88.890625 Z M 13.703125 -88.890625 "/></g></g></g><g fill="#3219a4" fill-opacity="1"><g transform="translate(641.68845, 923.723228)"><g><path d="M 13.703125 -88.890625 C 13.703125 -97.703125 13.429688 -105.296875 12.890625 -111.671875 C 12.359375 -118.054688 11.660156 -123.550781 10.796875 -128.15625 C 9.929688 -132.769531 9.023438 -136.765625 8.078125 -140.140625 C 7.140625 -143.515625 6.238281 -146.554688 5.375 -149.265625 C 4.507812 -151.984375 3.804688 -154.722656 3.265625 -157.484375 C 2.734375 -160.242188 2.46875 -163.269531 2.46875 -166.5625 C 2.46875 -169.601562 3.1875 -171.90625 4.625 -173.46875 C 6.070312 -175.03125 7.84375 -176.117188 9.9375 -176.734375 C 12.039062 -177.359375 14.117188 -177.691406 16.171875 -177.734375 C 18.234375 -177.773438 19.921875 -177.796875 21.234375 -177.796875 L 53.09375 -177.796875 C 54.40625 -177.796875 56.085938 -177.773438 58.140625 -177.734375 C 60.203125 -177.691406 62.28125 -177.359375 64.375 -176.734375 C 66.476562 -176.117188 68.25 -175.03125 69.6875 -173.46875 C 71.132812 -171.90625 71.859375 -169.601562 71.859375 -166.5625 C 71.859375 -163.269531 71.585938 -160.242188 71.046875 -157.484375 C 70.515625 -154.722656 69.816406 -151.984375 68.953125 -149.265625 C 68.085938 -146.554688 67.179688 -143.515625 66.234375 -140.140625 C 65.296875 -136.765625 64.394531 -132.769531 63.53125 -128.15625 C 62.664062 -123.550781 61.960938 -118.054688 61.421875 -111.671875 C 60.890625 -105.296875 60.625 -97.703125 60.625 -88.890625 C 60.625 -80.085938 60.890625 -72.492188 61.421875 -66.109375 C 61.960938 -59.734375 62.664062 -54.238281 63.53125 -49.625 C 64.394531 -45.019531 65.296875 -41.03125 66.234375 -37.65625 C 67.179688 -34.28125 68.085938 -31.234375 68.953125 -28.515625 C 69.816406 -25.804688 70.515625 -23.09375 71.046875 -20.375 C 71.585938 -17.65625 71.859375 -14.609375 71.859375 -11.234375 C 71.859375 -8.191406 71.132812 -5.882812 69.6875 -4.3125 C 68.25 -2.75 66.476562 -1.660156 64.375 -1.046875 C 62.28125 -0.429688 60.203125 -0.101562 58.140625 -0.0625 C 56.085938 -0.0195312 54.40625 0 53.09375 0 L 21.234375 0 C 19.921875 0 18.234375 -0.0195312 16.171875 -0.0625 C 14.117188 -0.101562 12.039062 -0.429688 9.9375 -1.046875 C 7.84375 -1.660156 6.070312 -2.75 4.625 -4.3125 C 3.1875 -5.882812 2.46875 -8.191406 2.46875 -11.234375 C 2.46875 -14.609375 2.734375 -17.65625 3.265625 -20.375 C 3.804688 -23.09375 4.507812 -25.804688 5.375 -28.515625 C 6.238281 -31.234375 7.140625 -34.28125 8.078125 -37.65625 C 9.023438 -41.03125 9.929688 -45.019531 10.796875 -49.625 C 11.660156 -54.238281 12.359375 -59.734375 12.890625 -66.109375 C 13.429688 -72.492188 13.703125 -80.085938 13.703125 -88.890625 Z M 13.703125 -88.890625 "/></g></g></g><g fill="#3219a4" fill-opacity="1"><g transform="translate(720.962847, 923.723228)"><g><path d="M 2.46875 -166.8125 C 2.46875 -169.769531 3.1875 -172.007812 4.625 -173.53125 C 6.070312 -175.050781 7.84375 -176.117188 9.9375 -176.734375 C 12.039062 -177.359375 14.117188 -177.691406 16.171875 -177.734375 C 18.234375 -177.773438 19.921875 -177.796875 21.234375 -177.796875 L 53.09375 -177.796875 C 54.40625 -177.796875 56.085938 -177.773438 58.140625 -177.734375 C 60.203125 -177.691406 62.28125 -177.359375 64.375 -176.734375 C 66.476562 -176.117188 68.25 -175.050781 69.6875 -173.53125 C 71.132812 -172.007812 71.859375 -169.769531 71.859375 -166.8125 C 71.859375 -163.59375 71.585938 -160.664062 71.046875 -158.03125 C 70.515625 -155.40625 69.816406 -152.753906 68.953125 -150.078125 C 68.085938 -147.398438 67.179688 -144.414062 66.234375 -141.125 C 65.296875 -137.832031 64.394531 -133.960938 63.53125 -129.515625 C 62.664062 -125.066406 61.960938 -119.734375 61.421875 -113.515625 C 60.890625 -107.304688 60.625 -99.921875 60.625 -91.359375 L 60.625 -51.484375 C 60.625 -48.191406 60.742188 -45.25 60.984375 -42.65625 C 61.234375 -40.0625 61.875 -38.046875 62.90625 -36.609375 C 63.9375 -35.171875 65.601562 -34.453125 67.90625 -34.453125 C 73.914062 -34.453125 79.242188 -35.375 83.890625 -37.21875 C 88.546875 -39.070312 92.742188 -41.359375 96.484375 -44.078125 C 100.234375 -46.796875 103.648438 -49.488281 106.734375 -52.15625 C 109.828125 -54.832031 112.789062 -57.097656 115.625 -58.953125 C 118.46875 -60.804688 121.367188 -61.734375 124.328125 -61.734375 C 127.296875 -61.734375 129.394531 -60.972656 130.625 -59.453125 C 131.863281 -57.929688 132.582031 -56.078125 132.78125 -53.890625 C 132.988281 -51.710938 133.09375 -49.59375 133.09375 -47.53125 L 133.09375 -12.21875 C 133.09375 -8.601562 131.960938 -5.660156 129.703125 -3.390625 C 127.441406 -1.128906 124.5 0 120.875 0 L 19.265625 0 C 17.941406 0 16.351562 -0.0195312 14.5 -0.0625 C 12.65625 -0.101562 10.804688 -0.429688 8.953125 -1.046875 C 7.097656 -1.660156 5.550781 -2.726562 4.3125 -4.25 C 3.082031 -5.78125 2.46875 -8.023438 2.46875 -10.984375 C 2.46875 -15.179688 2.835938 -19.03125 3.578125 -22.53125 C 4.316406 -26.03125 5.242188 -29.691406 6.359375 -33.515625 C 7.472656 -37.347656 8.601562 -41.796875 9.75 -46.859375 C 10.90625 -51.921875 11.851562 -58.03125 12.59375 -65.1875 C 13.332031 -72.351562 13.703125 -81.078125 13.703125 -91.359375 C 13.703125 -99.921875 13.429688 -107.304688 12.890625 -113.515625 C 12.359375 -119.734375 11.660156 -125.066406 10.796875 -129.515625 C 9.929688 -133.960938 9.023438 -137.832031 8.078125 -141.125 C 7.140625 -144.414062 6.238281 -147.398438 5.375 -150.078125 C 4.507812 -152.753906 3.804688 -155.40625 3.265625 -158.03125 C 2.734375 -160.664062 2.46875 -163.59375 2.46875 -166.8125 Z M 2.46875 -166.8125 "/></g></g></g><g fill="#3219a4" fill-opacity="1"><g transform="translate(834.306518, 923.723228)"><g><path d="M 2.46875 -127.671875 L 2.46875 -165.203125 C 2.46875 -168.984375 3.617188 -172.023438 5.921875 -174.328125 C 8.234375 -176.640625 11.28125 -177.796875 15.0625 -177.796875 L 126.4375 -177.796875 C 130.21875 -177.796875 133.257812 -176.640625 135.5625 -174.328125 C 137.875 -172.023438 139.03125 -168.984375 139.03125 -165.203125 L 139.03125 -127.671875 C 139.03125 -125.773438 138.367188 -124.25 137.046875 -123.09375 C 135.734375 -121.945312 134.171875 -121.375 132.359375 -121.375 C 129.804688 -121.375 127.4375 -121.863281 125.25 -122.84375 C 123.070312 -123.832031 120.910156 -125.085938 118.765625 -126.609375 C 116.628906 -128.140625 114.429688 -129.644531 112.171875 -131.125 C 109.910156 -132.601562 107.398438 -133.835938 104.640625 -134.828125 C 101.878906 -135.816406 98.769531 -136.3125 95.3125 -136.3125 L 93.46875 -136.3125 L 93.46875 -88.890625 C 93.46875 -80.085938 93.734375 -72.492188 94.265625 -66.109375 C 94.804688 -59.734375 95.503906 -54.238281 96.359375 -49.625 C 97.222656 -45.019531 98.128906 -41.03125 99.078125 -37.65625 C 100.023438 -34.28125 100.929688 -31.234375 101.796875 -28.515625 C 102.660156 -25.804688 103.359375 -23.09375 103.890625 -20.375 C 104.429688 -17.65625 104.703125 -14.609375 104.703125 -11.234375 C 104.703125 -8.191406 103.976562 -5.882812 102.53125 -4.3125 C 101.09375 -2.75 99.320312 -1.660156 97.21875 -1.046875 C 95.125 -0.429688 93.046875 -0.101562 90.984375 -0.0625 C 88.929688 -0.0195312 87.25 0 85.9375 0 L 54.078125 0 C 52.765625 0 51.078125 -0.0195312 49.015625 -0.0625 C 46.960938 -0.101562 44.882812 -0.429688 42.78125 -1.046875 C 40.6875 -1.660156 38.914062 -2.75 37.46875 -4.3125 C 36.03125 -5.882812 35.3125 -8.191406 35.3125 -11.234375 C 35.3125 -14.609375 35.578125 -17.65625 36.109375 -20.375 C 36.648438 -23.09375 37.351562 -25.804688 38.21875 -28.515625 C 39.082031 -31.234375 39.984375 -34.28125 40.921875 -37.65625 C 41.867188 -41.03125 42.773438 -45.019531 43.640625 -49.625 C 44.503906 -54.238281 45.203125 -59.734375 45.734375 -66.109375 C 46.273438 -72.492188 46.546875 -80.085938 46.546875 -88.890625 L 46.546875 -136.3125 L 46.171875 -136.3125 C 42.710938 -136.3125 39.601562 -135.816406 36.84375 -134.828125 C 34.09375 -133.835938 31.582031 -132.601562 29.3125 -131.125 C 27.050781 -129.644531 24.851562 -128.140625 22.71875 -126.609375 C 20.582031 -125.085938 18.421875 -123.832031 16.234375 -122.84375 C 14.054688 -121.863281 11.691406 -121.375 9.140625 -121.375 C 7.328125 -121.375 5.757812 -121.945312 4.4375 -123.09375 C 3.125 -124.25 2.46875 -125.773438 2.46875 -127.671875 Z M 2.46875 -127.671875 "/></g></g></g><g fill="#3219a4" fill-opacity="1"><g transform="translate(980.744074, 923.723228)"><g><path d="M -1.234375 -88.890625 C -1.234375 -98.859375 -0.554688 -108.390625 0.796875 -117.484375 C 2.160156 -126.578125 4.425781 -134.890625 7.59375 -142.421875 C 10.757812 -149.953125 15.097656 -156.515625 20.609375 -162.109375 C 26.128906 -167.710938 33.023438 -172.035156 41.296875 -175.078125 C 49.566406 -178.117188 59.507812 -179.640625 71.125 -179.640625 C 82.726562 -179.640625 92.664062 -178.117188 100.9375 -175.078125 C 109.207031 -172.035156 116.097656 -167.710938 121.609375 -162.109375 C 127.128906 -156.515625 131.472656 -149.953125 134.640625 -142.421875 C 137.804688 -134.890625 140.066406 -126.59375 141.421875 -117.53125 C 142.785156 -108.476562 143.46875 -98.929688 143.46875 -88.890625 C 143.46875 -78.929688 142.785156 -69.40625 141.421875 -60.3125 C 140.066406 -51.21875 137.804688 -42.90625 134.640625 -35.375 C 131.472656 -27.84375 127.128906 -21.273438 121.609375 -15.671875 C 116.097656 -10.078125 109.207031 -5.753906 100.9375 -2.703125 C 92.664062 0.335938 82.726562 1.859375 71.125 1.859375 C 59.507812 1.859375 49.566406 0.335938 41.296875 -2.703125 C 33.023438 -5.753906 26.128906 -10.078125 20.609375 -15.671875 C 15.097656 -21.273438 10.757812 -27.84375 7.59375 -35.375 C 4.425781 -42.90625 2.160156 -51.21875 0.796875 -60.3125 C -0.554688 -69.40625 -1.234375 -78.929688 -1.234375 -88.890625 Z M 46.796875 -88.890625 C 46.796875 -81.566406 47.101562 -74.691406 47.71875 -68.265625 C 48.332031 -61.847656 49.503906 -56.210938 51.234375 -51.359375 C 52.960938 -46.503906 55.410156 -42.695312 58.578125 -39.9375 C 61.753906 -37.1875 65.9375 -35.8125 71.125 -35.8125 C 76.300781 -35.8125 80.472656 -37.1875 83.640625 -39.9375 C 86.816406 -42.695312 89.269531 -46.503906 91 -51.359375 C 92.726562 -56.210938 93.898438 -61.847656 94.515625 -68.265625 C 95.128906 -74.691406 95.4375 -81.566406 95.4375 -88.890625 C 95.4375 -96.222656 95.128906 -103.097656 94.515625 -109.515625 C 93.898438 -115.929688 92.726562 -121.585938 91 -126.484375 C 89.269531 -131.390625 86.816406 -135.21875 83.640625 -137.96875 C 80.472656 -140.726562 76.300781 -142.109375 71.125 -142.109375 C 65.9375 -142.109375 61.753906 -140.726562 58.578125 -137.96875 C 55.410156 -135.21875 52.960938 -131.390625 51.234375 -126.484375 C 49.503906 -121.585938 48.332031 -115.929688 47.71875 -109.515625 C 47.101562 -103.097656 46.796875 -96.222656 46.796875 -88.890625 Z M 46.796875 -88.890625 "/></g></g></g><g fill="#3219a4" fill-opacity="1"><g transform="translate(1127.919044, 923.723228)"><g><path d="M 13.703125 -88.890625 C 13.703125 -97.703125 13.429688 -105.296875 12.890625 -111.671875 C 12.359375 -118.054688 11.660156 -123.550781 10.796875 -128.15625 C 9.929688 -132.769531 9.023438 -136.765625 8.078125 -140.140625 C 7.140625 -143.515625 6.238281 -146.554688 5.375 -149.265625 C 4.507812 -151.984375 3.804688 -154.722656 3.265625 -157.484375 C 2.734375 -160.242188 2.46875 -163.269531 2.46875 -166.5625 C 2.46875 -169.601562 3.1875 -171.90625 4.625 -173.46875 C 6.070312 -175.03125 7.84375 -176.117188 9.9375 -176.734375 C 12.039062 -177.359375 14.117188 -177.691406 16.171875 -177.734375 C 18.234375 -177.773438 19.921875 -177.796875 21.234375 -177.796875 L 41.984375 -177.796875 C 43.460938 -177.796875 45.414062 -177.753906 47.84375 -177.671875 C 50.269531 -177.585938 52.632812 -177.09375 54.9375 -176.1875 C 57.25 -175.28125 58.894531 -173.632812 59.875 -171.25 L 59.875 -171.375 L 101.984375 -91.25 C 101.898438 -99.71875 101.585938 -107.019531 101.046875 -113.15625 C 100.515625 -119.289062 99.816406 -124.578125 98.953125 -129.015625 C 98.085938 -133.460938 97.179688 -137.3125 96.234375 -140.5625 C 95.296875 -143.820312 94.414062 -146.804688 93.59375 -149.515625 C 92.769531 -152.234375 92.085938 -154.929688 91.546875 -157.609375 C 91.015625 -160.285156 90.75 -163.269531 90.75 -166.5625 C 90.75 -169.601562 91.46875 -171.90625 92.90625 -173.46875 C 94.351562 -175.03125 96.125 -176.117188 98.21875 -176.734375 C 100.320312 -177.359375 102.398438 -177.691406 104.453125 -177.734375 C 106.515625 -177.773438 108.203125 -177.796875 109.515625 -177.796875 L 130.390625 -177.796875 C 131.703125 -177.796875 133.382812 -177.773438 135.4375 -177.734375 C 137.5 -177.691406 139.578125 -177.359375 141.671875 -176.734375 C 143.773438 -176.117188 145.546875 -175.03125 146.984375 -173.46875 C 148.429688 -171.90625 149.15625 -169.601562 149.15625 -166.5625 C 149.15625 -163.269531 148.882812 -160.242188 148.34375 -157.484375 C 147.8125 -154.722656 147.113281 -151.984375 146.25 -149.265625 C 145.382812 -146.554688 144.476562 -143.515625 143.53125 -140.140625 C 142.582031 -136.765625 141.675781 -132.769531 140.8125 -128.15625 C 139.945312 -123.550781 139.25 -118.054688 138.71875 -111.671875 C 138.1875 -105.296875 137.921875 -97.703125 137.921875 -88.890625 C 137.921875 -80.085938 138.1875 -72.492188 138.71875 -66.109375 C 139.25 -59.734375 139.945312 -54.238281 140.8125 -49.625 C 141.675781 -45.019531 142.582031 -41.03125 143.53125 -37.65625 C 144.476562 -34.28125 145.382812 -31.234375 146.25 -28.515625 C 147.113281 -25.804688 147.8125 -23.09375 148.34375 -20.375 C 148.882812 -17.65625 149.15625 -14.609375 149.15625 -11.234375 C 149.15625 -8.191406 148.429688 -5.882812 146.984375 -4.3125 C 145.546875 -2.75 143.773438 -1.660156 141.671875 -1.046875 C 139.578125 -0.429688 137.5 -0.101562 135.4375 -0.0625 C 133.382812 -0.0195312 131.703125 0 130.390625 0 L 109.515625 0 C 108.441406 0 107.039062 -0.0195312 105.3125 -0.0625 C 103.582031 -0.101562 101.789062 -0.285156 99.9375 -0.609375 C 98.09375 -0.941406 96.40625 -1.601562 94.875 -2.59375 C 93.351562 -3.582031 92.222656 -4.984375 91.484375 -6.796875 L 49.515625 -86.421875 C 49.597656 -78.023438 49.90625 -70.757812 50.4375 -64.625 C 50.96875 -58.5 51.664062 -53.210938 52.53125 -48.765625 C 53.394531 -44.328125 54.300781 -40.457031 55.25 -37.15625 C 56.195312 -33.863281 57.082031 -30.878906 57.90625 -28.203125 C 58.726562 -25.535156 59.40625 -22.863281 59.9375 -20.1875 C 60.476562 -17.507812 60.75 -14.523438 60.75 -11.234375 C 60.75 -8.191406 60.023438 -5.882812 58.578125 -4.3125 C 57.140625 -2.75 55.367188 -1.660156 53.265625 -1.046875 C 51.171875 -0.429688 49.09375 -0.101562 47.03125 -0.0625 C 44.976562 -0.0195312 43.296875 0 41.984375 0 L 21.234375 0 C 19.921875 0 18.234375 -0.0195312 16.171875 -0.0625 C 14.117188 -0.101562 12.039062 -0.429688 9.9375 -1.046875 C 7.84375 -1.660156 6.070312 -2.75 4.625 -4.3125 C 3.1875 -5.882812 2.46875 -8.191406 2.46875 -11.234375 C 2.46875 -14.609375 2.734375 -17.65625 3.265625 -20.375 C 3.804688 -23.09375 4.507812 -25.804688 5.375 -28.515625 C 6.238281 -31.234375 7.140625 -34.28125 8.078125 -37.65625 C 9.023438 -41.03125 9.929688 -45.019531 10.796875 -49.625 C 11.660156 -54.238281 12.359375 -59.734375 12.890625 -66.109375 C 13.429688 -72.492188 13.703125 -80.085938 13.703125 -88.890625 Z M 13.703125 -88.890625 "/></g></g></g></svg>